Coordinates
version=1
nRows=16
nColumns=22
inDegrees=yes

Units are S.I. units (second, meters, Newtons, ...)
If the header above contains a line with 'inDegrees', this indicates whether rotational values are in degrees (yes) or radians (no).

endheader
time	pelvis_tilt	pelvis_list	pelvis_rotation	pelvis_tx	pelvis_ty	pelvis_tz	hip_flexion_r	hip_adduction_r	hip_rotation_r	knee_angle_r	ankle_angle_r	subtalar_angle_r	hip_flexion_l	hip_adduction_l	hip_rotation_l	knee_angle_l	ankle_angle_l	subtalar_angle_l	lumbar_extension	lumbar_bending	lumbar_rotation
      4.24000000	     -0.22077844	     -3.43366334	     11.19540067	      0.88715193	      0.94705324	     -0.32420444	     25.86918728	     -1.64995144	     -6.89578116	    -15.68827458	      4.63402620	      6.04593098	     -9.16877048	     -3.75458613	     17.51746966	    -15.61837406	     18.09479979	      1.51597870	     -1.99732841	      3.44128699	    -13.27339249
      4.25000000	     -0.19503339	     -3.40784404	     11.58162876	      0.89552037	      0.94641601	     -0.32358080	     25.80415985	     -1.70737039	     -7.11615643	    -15.93837983	      4.23275053	      5.87094054	     -9.48304577	     -3.91097217	     17.91390295	    -15.94246544	     18.01576664	      1.71983204	     -1.93682390	      3.44037506	    -13.36542620
      4.26000000	     -0.13408638	     -3.44023904	     11.91925349	      0.90405131	      0.94581936	     -0.32278454	     25.75867151	     -1.67934307	     -7.41620155	    -16.40985041	      3.55429767	      5.32930650	     -9.79262396	     -4.13313835	     18.21184375	    -16.34335267	     17.99394872	      2.17213881	     -1.89490039	      3.50192052	    -13.37808530
      4.27000000	     -0.09075124	     -3.49418930	     12.24574839	      0.91265385	      0.94524733	     -0.32193313	     25.77384211	     -1.64395791	     -7.75381884	    -17.07311285	      2.70494255	      5.02064317	    -10.04578821	     -4.36263588	     18.53947245	    -16.80995527	     17.90474496	      2.46236990	     -1.82273604	      3.58485279	    -13.39989810
      4.28000000	     -0.04837901	     -3.58618983	     12.53162352	      0.92134432	      0.94474295	     -0.32096875	     25.81959073	     -1.56220270	     -8.09694671	    -17.86549312	      1.72984555	      4.74403756	    -10.25612438	     -4.61587835	     18.84947989	    -17.35097231	     17.77265005	      2.76704550	     -1.73745332	      3.70758620	    -13.36619726
      4.29000000	     -0.00153165	     -3.71747014	     12.76708198	      0.93012625	      0.94435441	     -0.31989779	     25.86943343	     -1.42615978	     -8.40008213	    -18.72410880	      0.72970289	      4.72307298	    -10.43906153	     -4.89206060	     19.12694554	    -17.94702251	     17.55079180	      2.92857612	     -1.64404403	      3.87542971	    -13.30776930
      4.30000000	      0.03064580	     -3.88919807	     12.95439886	      0.93897196	      0.94402849	     -0.31868973	     25.96418233	     -1.24143059	     -8.74181634	    -19.66187435	     -0.16356527	      4.48343023	    -10.52978582	     -5.18622179	     19.30307834	    -18.66994268	     17.35540446	      3.39068989	     -1.52410625	      4.07795369	    -13.20462073
      4.31000000	      0.07045641	     -4.09759832	     13.08376030	      0.94789523	      0.94387135	     -0.31738233	     26.01621358	     -0.99093476	     -9.02569291	    -20.55303487	     -0.92764975	      4.46982203	    -10.58932967	     -5.49372465	     19.43053767	    -19.45815373	     17.04261470	      3.70832225	     -1.40098498	      4.32214817	    -13.04650064
      4.32000000	      0.10739636	     -4.32456763	     13.15659088	      0.95685707	      0.94388618	     -0.31600028	     26.02259082	     -0.68849547	     -9.23993277	    -21.36834274	     -1.53981432	      4.49194793	    -10.59874717	     -5.79001922	     19.49667308	    -20.32402523	     16.61374234	      3.97220171	     -1.27219275	      4.58892897	    -12.85088511
      4.33000000	      0.11395118	     -4.54458554	     13.19019784	      0.96582349	      0.94401452	     -0.31453835	     26.03136622	     -0.38162448	     -9.47762245	    -22.15148922	     -1.92969775	      4.39497451	    -10.49908363	     -6.04900333	     19.46727281	    -21.31297793	     16.14577991	      4.60246139	     -1.11406556	      4.83527012	    -12.64061459
      4.34000000	      0.13675664	     -4.78997952	     13.17453082	      0.97483820	      0.94434905	     -0.31302501	     25.94343697	     -0.00397824	     -9.65180256	    -22.79899779	     -2.15766459	      4.35469165	    -10.37953314	     -6.31385702	     19.37755020	    -22.34958541	     15.51829032	      4.86190005	     -0.96639629	      5.11483574	    -12.39063786
      4.35000000	      0.12837662	     -5.01406235	     13.14503874	      0.98380431	      0.94481212	     -0.31150559	     25.82583138	      0.36512485	     -9.81319208	    -23.35826326	     -2.20474185	      4.20789280	    -10.14921644	     -6.52871199	     19.23876051	    -23.49708332	     14.79811252	      5.24637652	     -0.79353528	      5.36314471	    -12.15517715
      4.36000000	      0.11450304	     -5.20603169	     13.10708319	      0.99272428	      0.94544281	     -0.31000131	     25.63674525	      0.72479978	     -9.94053123	    -23.80786535	     -2.10560733	      3.98494198	     -9.85064053	     -6.69123870	     19.07264306	    -24.72675646	     13.95547811	      5.60495929	     -0.62553438	      5.57329056	    -11.93237177
      4.37000000	      0.09612453	     -5.37231294	     13.07561440	      1.00157308	      0.94621896	     -0.30853017	     25.37439968	      1.07520286	    -10.04570519	    -24.14142165	     -1.89680404	      3.70486218	     -9.47191375	     -6.81138999	     18.88553337	    -26.05128350	     13.00165536	      5.89768277	     -0.46301017	      5.75306045	    -11.73664126
      4.38000000	      0.07529759	     -5.51190623	     13.06325285	      1.01032042	      0.94712258	     -0.30711818	     25.04022702	      1.40731382	    -10.13786630	    -24.36247644	     -1.60957195	      3.38214771	     -9.00358343	     -6.89112039	     18.68121214	    -27.48320566	     11.96415230	      6.13377710	     -0.30877943	      5.90203796	    -11.57405116
      4.39000000	      0.04855212	     -5.62518066	     13.08190908	      1.01890024	      0.94810111	     -0.30576438	     24.66374073	      1.71411366	    -10.21850929	    -24.50860717	     -1.28734537	      2.97964819	     -8.41856637	     -6.93282189	     18.45681300	    -29.05267835	     10.89764805	      6.35248602	     -0.16617474	      6.01980983	    -11.47949936
